# xmcd CD database file
# Copyright (C) 1995 Ti Kan
#
# Track frame offsets:
#	150
#	24385
#	37958
#	62218
#	84278
#	102463
#	123800
#	143363
#	167430
#	187983
#	212668
#	254143
#
# Disc length: 3581 seconds
#
# Revision: 1
# Processed by: cddbd v1.4b41PL1 Copyright (c) Steve Scherf et al.
# Submitted via: xmcd 1.4
#
DISCID=970dfb0c
DTITLE=Hot Tuna  -  Live at Sweetwater Two
DYEAR=1900
DGENRE=
TTITLE0=Hesitation Blues
TTITLE1=Dime for a Beer
TTITLE2=Death Don't Have No Mercy
TTITLE3=99 Year Blues
TTITLE4=San Francisco Bay Blues
TTITLE5=Blue Moon of Kentucky
TTITLE6=Ain't Got No Home
TTITLE7=Good Morning Little Schoolgirl
TTITLE8=3rd Week At The Chelsea
TTITLE9=AK-47
TTITLE10=Parchman Farm
TTITLE11=BONUS ELECTRIC CUT:  Endless Sleep
EXTD=Relix  -  1993
EXTT0=
EXTT1=
EXTT2=
EXTT3=
EXTT4=
EXTT5=
EXTT6=
EXTT7=
EXTT8=
EXTT9=
EXTT10=
EXTT11=
PLAYORDER=
